<?xml version="1.0" encoding="utf-8"?>
<!-- Generator: Adobe Illustrator 21.0.0, SVG Export Plug-In . SVG Version: 6.00 Build 0)  -->
<svg version="1.1" id="Capa_1" xmlns="http://www.w3.org/2000/svg" xmlns:xlink="http://www.w3.org/1999/xlink" x="0px" y="0px"
	 viewBox="0 0 1200 601" style="enable-background:new 0 0 1200 601;" xml:space="preserve">
<style type="text/css">
	.st0{fill-rule:evenodd;clip-rule:evenodd;fill:#FF9D00;}
	.st1{fill-rule:evenodd;clip-rule:evenodd;fill:#0068FF;}
	.st2{fill:#4B4B4C;}
</style>
<g>
	<g>
		<g>
			<path class="st0" d="M383.8,437.8c-19.6-0.1-34.5-13.1-37.7-33c-1-6.1-1.6-12.3-2.6-18.4c-3-17.8-12.3-27.7-30.3-30.4
				c-14.2-2.2-28.3-2.1-40,8.4c-7.6,6.8-11.4,15.2-12.3,25.4c-0.8,8.9-1.4,17.9-5.4,26.2c-7.7,16.2-25.7,25.1-42.9,21.2
				c-16.2-3.7-29.8-20.7-30.3-37.8c-0.4-17.3,12.2-34.5,28.8-38.5c8-1.9,16.4-2.5,24.4-4.3c12.4-2.7,21.1-10,25-22.3
				c4-12.5,4-25.3,0.4-37.7c-4.1-14-14.4-21.4-28.4-23.9c-5.4-1-10.9-1.4-16.4-2.3c-18.6-3.1-30.2-14.8-33.2-33.3
				c-2.4-15.1,6.4-33,19.9-40.2c14.5-7.8,32.3-5.4,45.2,6.2c9.8,8.8,12.3,21.2,12.5,33c0.5,38.7,39.3,45.5,64.4,34.5
				c11-4.8,16.3-14.5,18.6-25.8c1.2-6.1,1.7-12.3,2.5-18.4c2.3-19.1,17.7-33.3,37.1-34c19-0.7,35.7,13.4,39,33.1
				c3.2,18.7-8,37.9-25.8,43.2c-6.9,2-14.2,2.8-21.4,3.6c-16,2-26.9,10.7-31.1,26.2c-3.9,14.1-2.9,28.1,3.1,41.4
				c4.2,9.2,12,14.2,21.4,16.4c6.7,1.6,13.6,2.1,20.4,3.1c21.3,3.1,35.2,20.6,33.7,42.5C421,421.8,403.7,437.9,383.8,437.8z"/>
		</g>
		<g>
			<path class="st1" d="M303.1,266c-28.5,0-47.2-30.7-33.9-56c2.9-5.4,6.7-10.4,10.4-15.4c14.8-20,14.6-35.6-1.6-55.2
				c-17.1-20.7-18.8-51.9,7.7-64.1c31.9-14.8,70.3,17.7,50.7,51.1c-4.2,7.1-9.3,13.7-14.1,20.4c-10.1,14.1-9.3,28.2-0.1,42.4
				c5,7.8,11.6,14.6,15.5,23.2C348.8,236.9,330,266.1,303.1,266z"/>
		</g>
		<g>
			<path class="st1" d="M388.3,278.9c13.5,1.4,27.5,9.5,39,17.3c12.5,8.4,25.2,8.5,37.6,0c6.5-4.5,12.5-9.7,19.2-14
				c16.5-10.7,35.7-7.3,48.9,8.5c12,14.3,11.3,36.9-1.6,51.3c-12,13.4-32.6,15.8-47.8,5.4c-5.4-3.7-10.4-7.9-15.7-11.7
				c-14.5-10.4-29.6-10.4-43.9,0.2c-17.3,12.8-44.8,25.3-62.6,6.5c-13.8-14.6-15-35.7-2.6-50.9C367.3,280.8,377.7,277.8,388.3,278.9
				z"/>
		</g>
		<g>
			<path class="st1" d="M102,350.9c13.5-1.4,27.5-9.5,39-17.3c12.5-8.4,25.2-8.5,37.6,0c6.5,4.5,12.5,9.7,19.2,14
				c16.5,10.7,35.7,7.3,48.9-8.5c12-14.3,11.3-36.9-1.6-51.3c-12-13.4-32.6-15.8-47.8-5.4c-5.4,3.7-10.4,7.9-15.7,11.7
				c-14.5,10.4-29.6,10.4-43.9-0.2c-17.3-12.8-44.8-25.3-62.6-6.5c-13.8,14.6-15,35.7-2.6,50.9C81,349,91.3,352.1,102,350.9z"/>
		</g>
		<g>
			<path class="st1" d="M338.5,401.8c-1.4,13.7-9.2,28-16.6,39c-8.4,12.5-8.5,25.2,0,37.6c4.5,6.5,9.7,12.5,14,19.2
				c10.7,16.5,7.3,35.7-8.5,48.9c-14.3,12-36.9,11.3-51.3-1.6c-13.4-12-15.8-32.6-5.4-47.8c3.7-5.4,7.9-10.4,11.7-15.7
				c10.4-14.5,10.4-29.6-0.2-43.9c-8.6-11.6-17.1-27.4-15.7-42.3c1.5-16.7,15.4-30.6,32.3-31.1c8.3-0.3,21.3,2.8,27.9,8.2
				C336.8,380.5,339.6,391,338.5,401.8z"/>
		</g>
	</g>
	<g>
		<path class="st2" d="M507.4,207.5c-6.8-2.3-13-4.7-18.6-7.1c-5.6-2.4-10.4-5.3-14.4-8.7c-4-3.4-7.2-7.5-9.4-12.2
			c-2.2-4.7-3.4-10.5-3.4-17.3c0-13.1,5.1-23.7,15.2-31.5c10.1-7.9,24.3-11.8,42.6-11.8c6.6,0,12.8,0.5,18.6,1.4
			c5.7,0.9,10.6,2.4,14.7,4.3c4.1,1.9,7.3,4.4,9.6,7.4c2.3,3,3.5,6.5,3.5,10.6c0,4-0.9,7.5-2.8,10.3c-1.9,2.9-4.1,5.3-6.7,7.3
			c-3.4-2.2-8-4.1-13.7-5.7c-5.7-1.6-12-2.4-18.8-2.4c-7,0-12.1,1-15.3,2.9c-3.2,1.9-4.9,4.4-4.9,7.3c0,2.3,1,4.2,3,5.7
			c2,1.5,5,2.8,9,4.1l12.3,3.9c14.5,4.6,25.7,10.6,33.5,17.7c7.8,7.2,11.7,17,11.7,29.3c0,13.1-5.2,23.8-15.5,31.9
			c-10.4,8.1-25.6,12.2-45.7,12.2c-7.1,0-13.7-0.6-19.8-1.7c-6.1-1.2-11.4-2.9-16-5.1c-4.6-2.2-8.1-5-10.7-8.4
			c-2.6-3.3-3.8-7.2-3.8-11.5c0-4.5,1.3-8.3,3.9-11.5c2.6-3.2,5.5-5.6,8.6-7.3c4.3,3.4,9.6,6.3,15.9,8.8c6.3,2.5,13.1,3.7,20.5,3.7
			c7.6,0,12.9-1.2,16-3.5c3.1-2.3,4.6-5,4.6-8.1c0-3.1-1.2-5.5-3.7-7.1c-2.5-1.6-6-3.2-10.4-4.8L507.4,207.5z"/>
		<path class="st2" d="M628.3,162.1c5.5,0,11,0.8,16.3,2.3c5.3,1.6,9.9,3.9,13.9,7c4-2.7,8.6-4.9,13.6-6.7
			c5.1-1.8,11.2-2.6,18.3-2.6c5.1,0,10.1,0.7,15.1,2c4.9,1.3,9.3,3.5,13.1,6.4c3.8,2.9,6.9,6.7,9.2,11.5c2.3,4.8,3.4,10.6,3.4,17.5
			v63.7c-1.3,0.4-3.5,0.8-6.4,1.2c-2.9,0.4-5.9,0.6-9,0.6c-3,0-5.6-0.2-8-0.6c-2.4-0.4-4.3-1.2-6-2.4c-1.6-1.2-2.9-2.9-3.7-5
			c-0.9-2.1-1.3-4.8-1.3-8.2v-48.3c0-4-1.1-7-3.4-8.8c-2.3-1.8-5.4-2.7-9.3-2.7c-1.9,0-3.9,0.4-6.1,1.3c-2.2,0.9-3.8,1.8-4.9,2.7
			c0.1,0.5,0.2,1,0.2,1.5c0,0.5,0,0.9,0,1.3v67.3c-1.5,0.4-3.7,0.8-6.6,1.2c-2.9,0.4-5.8,0.6-8.8,0.6c-3,0-5.6-0.2-8-0.6
			c-2.4-0.4-4.3-1.2-6-2.4c-1.6-1.2-2.9-2.9-3.7-5c-0.9-2.1-1.3-4.8-1.3-8.2v-48.3c0-4-1.2-7-3.7-8.8c-2.5-1.8-5.5-2.7-9-2.7
			c-2.4,0-4.5,0.4-6.3,1.1c-1.8,0.7-3.2,1.5-4.4,2.1v71c-1.3,0.4-3.5,0.8-6.4,1.2c-2.9,0.4-5.9,0.6-9,0.6c-3,0-5.6-0.2-8-0.6
			c-2.4-0.4-4.3-1.2-6-2.4c-1.6-1.2-2.9-2.9-3.7-5c-0.9-2.1-1.3-4.8-1.3-8.2v-61.1c0-3.6,0.8-6.5,2.3-8.7c1.5-2.2,3.7-4.2,6.4-6.1
			c4.6-3.2,10.3-5.9,17.1-7.9C613.8,163.1,620.9,162.1,628.3,162.1z"/>
		<path class="st2" d="M783.4,162.1c7.3,0,13.9,0.7,19.9,2.2c6,1.5,11.1,3.7,15.4,6.8c4.2,3,7.5,6.9,9.8,11.5
			c2.3,4.6,3.4,10.1,3.4,16.5v45.3c0,3.5-1,6.4-2.9,8.6c-2,2.2-4.3,4.1-7,5.8c-8.8,5.3-21.1,7.9-37,7.9c-7.1,0-13.6-0.7-19.3-2
			c-5.7-1.3-10.7-3.4-14.8-6.1c-4.1-2.7-7.3-6.1-9.5-10.3c-2.2-4.2-3.3-9-3.3-14.6c0-9.3,2.8-16.4,8.3-21.4c5.5-5,14.1-8.1,25.7-9.3
			l26.5-2.8v-1.4c0-3.9-1.7-6.7-5.2-8.4c-3.4-1.7-8.4-2.5-14.9-2.5c-5.1,0-10.1,0.5-15,1.6c-4.9,1.1-9.2,2.4-13.1,4
			c-1.8-1.2-3.2-3.1-4.4-5.6c-1.2-2.5-1.8-5.1-1.8-7.8c0-3.5,0.8-6.3,2.5-8.4c1.7-2.1,4.3-3.9,7.8-5.4c3.9-1.5,8.5-2.6,13.9-3.2
			C773.7,162.4,778.7,162.1,783.4,162.1z M785,241.5c2.3,0,4.8-0.2,7.6-0.7c2.8-0.5,4.8-1.1,6.2-1.9v-16.2l-14.6,1.2
			c-3.8,0.3-6.9,1.1-9.3,2.4c-2.4,1.3-3.6,3.4-3.6,6.1c0,2.7,1,4.9,3.1,6.6C776.5,240.7,780,241.5,785,241.5z"/>
		<path class="st2" d="M878,263.2c-1.3,0.4-3.5,0.8-6.4,1.2c-2.9,0.4-5.9,0.6-9,0.6c-3,0-5.6-0.2-8-0.6c-2.4-0.4-4.3-1.2-6-2.4
			c-1.6-1.2-2.9-2.9-3.7-5c-0.9-2.1-1.3-4.8-1.3-8.2v-60.7c0-3.1,0.6-5.8,1.7-8c1.1-2.2,2.8-4.2,5-6c2.2-1.7,4.8-3.3,8-4.8
			c3.2-1.4,6.6-2.7,10.2-3.7c3.6-1.1,7.4-1.9,11.3-2.5c3.9-0.6,7.8-0.9,11.7-0.9c6.5,0,11.6,1.2,15.4,3.7c3.8,2.5,5.7,6.6,5.7,12.2
			c0,1.9-0.3,3.7-0.8,5.6c-0.5,1.8-1.2,3.5-2,5c-2.8,0-5.7,0.1-8.7,0.4c-3,0.3-5.9,0.7-8.7,1.2c-2.8,0.5-5.5,1.1-8,1.7
			c-2.5,0.6-4.6,1.3-6.4,2.1V263.2z"/>
		<path class="st2" d="M951.8,229.6c0,3.5,1.1,6,3.3,7.5c2.2,1.5,5.4,2.2,9.4,2.2c2,0,4.1-0.2,6.3-0.5c2.2-0.3,4-0.8,5.7-1.3
			c1.2,1.5,2.3,3.1,3.1,5c0.9,1.8,1.3,4,1.3,6.6c0,5.1-1.9,9.3-5.8,12.5c-3.8,3.2-10.6,4.9-20.3,4.9c-11.9,0-21-2.7-27.4-8.1
			c-6.4-5.4-9.6-14.2-9.6-26.3v-86.5c1.5-0.4,3.6-0.8,6.4-1.3c2.8-0.5,5.7-0.7,8.8-0.7c5.9,0,10.5,1,13.9,3.1c3.3,2.1,5,6.5,5,13.2
			v12.9h26.5c0.8,1.5,1.6,3.3,2.3,5.6c0.7,2.2,1.1,4.7,1.1,7.4c0,4.7-1,8.1-3.1,10.2c-2.1,2.1-4.9,3.1-8.4,3.1h-18.4V229.6z"/>
	</g>
	<g>
		<path class="st2" d="M640,369.1c-1.5,1.3-3.5,2.3-5.9,3.1c-2.4,0.8-5.2,1.1-8.3,1.1c-4.2,0-7.7-0.5-10.4-1.6
			c-2.7-1.1-4.5-2.9-5.3-5.4c-3.3-10.3-6-18.6-8.1-25c-2.1-6.4-3.7-11.9-4.9-16.7h-0.9c-0.4,6.9-0.6,13.2-0.8,18.8
			c-0.2,5.7-0.3,11.2-0.3,16.6c-0.1,5.4-0.2,10.8-0.4,16.3c-0.2,5.5-0.4,11.6-0.8,18.2c-1.5,0.6-3.5,1.1-6,1.5
			c-2.5,0.4-4.9,0.6-7.4,0.6c-5.1,0-9.1-0.8-12-2.5c-2.9-1.6-4.3-4.6-4.3-8.9l5.1-89.3c0.9-1.5,3-3.2,6.1-4.9
			c3.2-1.8,7.6-2.6,13.3-2.6c6.2,0,11,1,14.5,2.9c3.5,1.9,6.1,5.1,7.7,9.4c1.1,2.8,2.2,6,3.4,9.6c1.2,3.6,2.5,7.4,3.7,11.2
			c1.2,3.9,2.4,7.7,3.6,11.5c1.2,3.8,2.2,7.2,3.2,10.2h0.9c2.8-9.8,5.6-19.3,8.4-28.5c2.8-9.2,5.4-16.8,7.7-23
			c1.8-0.9,4-1.7,6.7-2.4c2.7-0.6,5.8-1,9.2-1c5.7,0,10.4,0.8,14,2.5c3.6,1.7,5.7,4.1,6.3,7.3c0.5,2.3,1,5.9,1.5,10.8
			c0.5,4.8,1.1,10.3,1.7,16.4c0.6,6.1,1.2,12.5,1.8,19.3c0.6,6.8,1.1,13.3,1.7,19.5c0.5,6.2,1,12,1.3,17.2c0.4,5.2,0.6,9.2,0.7,12
			c-2,1.2-4.1,2-6.2,2.5c-2.2,0.5-4.9,0.8-8.3,0.8c-4.4,0-8.2-0.8-11.2-2.3c-3-1.5-4.7-4.5-4.9-8.9c-0.7-12.7-1.1-24.2-1.3-34.3
			c-0.2-10.2-0.4-18.7-0.8-25.6h-0.9c-1.2,4.6-2.9,10.3-5.1,17.2C645.8,349.6,643.1,358.4,640,369.1z"/>
		<path class="st2" d="M741.1,398c-6.9,0-13.3-1-19.2-2.9c-5.9-1.9-11-4.8-15.4-8.7c-4.4-3.9-7.8-8.7-10.3-14.5
			c-2.5-5.8-3.8-12.7-3.8-20.5c0-7.7,1.3-14.3,3.8-19.9c2.5-5.5,5.8-10.1,9.9-13.7c4.1-3.6,8.8-6.2,14-7.9
			c5.3-1.7,10.6-2.5,16.1-2.5c6.2,0,11.8,0.9,16.9,2.8c5.1,1.9,9.5,4.4,13.1,7.7c3.7,3.3,6.5,7.2,8.6,11.7c2,4.6,3.1,9.5,3.1,14.9
			c0,4-1.1,7-3.3,9.1c-2.2,2.1-5.3,3.4-9.3,4l-43.3,6.5c1.3,3.9,3.9,6.7,7.9,8.7c4,1.9,8.5,2.9,13.7,2.9c4.8,0,9.3-0.6,13.6-1.8
			c4.3-1.2,7.7-2.7,10.4-4.3c1.9,1.2,3.4,2.8,4.7,4.9c1.3,2.1,1.9,4.3,1.9,6.7c0,5.3-2.5,9.2-7.4,11.7c-3.7,2-7.9,3.3-12.6,4
			S745.1,398,741.1,398z M736.2,329.2c-2.8,0-5.2,0.5-7.3,1.4c-2,0.9-3.7,2.1-5,3.6c-1.3,1.5-2.2,3.1-2.9,4.9
			c-0.6,1.8-1,3.7-1.1,5.5l30-4.9c-0.4-2.3-1.6-4.7-3.9-7C743.7,330.4,740.5,329.2,736.2,329.2z"/>
		<path class="st2" d="M781.3,352.7c0-7.7,1.2-14.4,3.5-20.1c2.3-5.7,5.6-10.4,9.7-14.1c4.1-3.7,9-6.5,14.5-8.3
			c5.5-1.8,11.5-2.7,18-2.7c2.3,0,4.6,0.2,6.8,0.6c2.2,0.4,4,0.9,5.4,1.5v-28.4c1.2-0.4,3-0.7,5.6-1.1c2.6-0.4,5.2-0.6,7.9-0.6
			c2.6,0,4.9,0.2,6.9,0.5c2,0.3,3.8,1,5.2,2.1c1.4,1,2.5,2.5,3.2,4.3c0.7,1.8,1,4.2,1,7.1v83c0,5.5-2.6,9.9-7.7,13.1
			c-3.4,2.2-7.8,4.2-13.1,5.9c-5.4,1.7-11.6,2.5-18.6,2.5c-7.6,0-14.4-1.1-20.4-3.2c-6-2.1-11.1-5.1-15.2-9.1
			c-4.1-4-7.3-8.7-9.5-14.3C782.4,365.9,781.3,359.7,781.3,352.7z M831.1,330.8c-6.3,0-11.2,1.8-14.5,5.4c-3.4,3.6-5.1,9.1-5.1,16.5
			c0,7.2,1.6,12.7,4.7,16.4c3.2,3.7,7.7,5.5,13.7,5.5c2.1,0,4-0.3,5.7-1c1.7-0.6,3-1.4,3.9-2.2v-38.5
			C837.2,331.5,834.4,330.8,831.1,330.8z"/>
		<path class="st2" d="M879.8,286.4c0-4.4,1.5-8.2,4.5-11.2c3-3,6.9-4.6,11.8-4.6s8.8,1.5,11.8,4.6c3,3,4.5,6.8,4.5,11.2
			c0,4.4-1.5,8.2-4.5,11.2c-3,3-6.9,4.6-11.8,4.6s-8.8-1.5-11.8-4.6C881.3,294.6,879.8,290.9,879.8,286.4z M911,395
			c-1.3,0.2-3.2,0.6-5.7,1c-2.5,0.4-5.1,0.6-7.6,0.6c-2.6,0-4.9-0.2-6.9-0.5c-2-0.3-3.8-1.1-5.2-2.1c-1.4-1.1-2.5-2.5-3.2-4.3
			c-0.8-1.8-1.1-4.2-1.1-7.1v-71.3c1.3-0.2,3.2-0.6,5.7-1c2.5-0.4,5.1-0.6,7.6-0.6c2.6,0,4.9,0.2,6.9,0.5c2,0.4,3.8,1.1,5.2,2.1
			c1.4,1.1,2.5,2.5,3.2,4.3c0.8,1.8,1.1,4.2,1.1,7.1V395z"/>
		<path class="st2" d="M970.7,330.9c-2.9,0-5.7,0.5-8.3,1.4c-2.6,0.9-4.9,2.3-6.8,4.1c-1.9,1.8-3.5,4.1-4.6,6.7
			c-1.2,2.7-1.8,5.8-1.8,9.5c0,7.2,2.1,12.7,6.2,16.3c4.1,3.6,9.2,5.4,15.2,5.4c3.5,0,6.5-0.4,9.1-1.2c2.6-0.8,4.8-1.7,6.8-2.6
			c2.3,1.6,4.1,3.4,5.3,5.3c1.2,1.9,1.8,4.2,1.8,6.9c0,4.8-2.3,8.5-6.8,11.1c-4.6,2.6-10.9,3.9-18.9,3.9c-7.4,0-14-1.1-20-3.2
			c-6-2.2-11.1-5.2-15.3-9.1c-4.3-3.9-7.6-8.6-9.9-14.1c-2.3-5.5-3.5-11.6-3.5-18.2c0-7.7,1.3-14.5,3.8-20.2
			c2.5-5.8,5.9-10.5,10.2-14.3c4.3-3.7,9.3-6.5,15-8.4c5.7-1.9,11.6-2.8,18-2.8c8.4,0,14.9,1.5,19.4,4.6c4.6,3,6.8,6.9,6.8,11.7
			c0,2.2-0.5,4.3-1.6,6.2c-1.1,1.9-2.3,3.6-3.7,5c-2-0.9-4.4-1.8-7.2-2.7C977,331.4,974,330.9,970.7,330.9z"/>
		<path class="st2" d="M993.8,388.7c0-2.3,0.7-4.1,2.1-5.7c1.4-1.5,3.3-2.3,5.7-2.3s4.3,0.8,5.7,2.3c1.4,1.5,2.1,3.4,2.1,5.7
			c0,2.3-0.7,4.1-2.1,5.7c-1.4,1.5-3.3,2.3-5.7,2.3s-4.3-0.8-5.7-2.3C994.5,392.8,993.8,390.9,993.8,388.7z"/>
		<path class="st2" d="M1031,381.7c0,1.4,0.4,2.4,1.3,3c0.9,0.6,2.1,0.9,3.8,0.9c0.8,0,1.6-0.1,2.5-0.2c0.9-0.1,1.6-0.3,2.3-0.5
			c0.5,0.6,0.9,1.3,1.3,2c0.3,0.7,0.5,1.6,0.5,2.6c0,2-0.8,3.7-2.3,5c-1.5,1.3-4.2,1.9-8.1,1.9c-4.7,0-8.4-1.1-10.9-3.2
			c-2.6-2.2-3.8-5.7-3.8-10.5v-34.6c0.6-0.2,1.4-0.3,2.5-0.5c1.1-0.2,2.3-0.3,3.5-0.3c2.4,0,4.2,0.4,5.5,1.3c1.3,0.8,2,2.6,2,5.3
			v5.2h10.6c0.3,0.6,0.6,1.3,0.9,2.2c0.3,0.9,0.4,1.9,0.4,2.9c0,1.9-0.4,3.2-1.3,4.1c-0.8,0.8-2,1.3-3.4,1.3h-7.4V381.7z"/>
		<path class="st2" d="M1071.9,396.5c-3.2,0-6.1-0.4-8.8-1.3c-2.7-0.9-5.1-2.2-7.1-4c-2-1.8-3.6-4-4.8-6.7c-1.2-2.7-1.7-5.8-1.7-9.5
			c0-3.6,0.6-6.6,1.7-9.2c1.2-2.6,2.7-4.7,4.6-6.3c1.9-1.6,4-2.9,6.5-3.6c2.4-0.8,4.9-1.2,7.4-1.2c2.9,0,5.5,0.4,7.8,1.3
			c2.3,0.9,4.4,2,6.1,3.6c1.7,1.5,3,3.3,4,5.4c0.9,2.1,1.4,4.4,1.4,6.9c0,1.8-0.5,3.2-1.5,4.2c-1,1-2.5,1.6-4.3,1.9l-20,3
			c0.6,1.8,1.8,3.1,3.6,4s3.9,1.3,6.3,1.3c2.2,0,4.3-0.3,6.3-0.8c2-0.6,3.6-1.2,4.8-2c0.9,0.5,1.6,1.3,2.2,2.3c0.6,1,0.9,2,0.9,3.1
			c0,2.4-1.1,4.2-3.4,5.4c-1.7,0.9-3.7,1.5-5.8,1.9C1075.8,396.4,1073.8,396.5,1071.9,396.5z M1069.6,364.8c-1.3,0-2.4,0.2-3.4,0.6
			c-0.9,0.4-1.7,1-2.3,1.7c-0.6,0.7-1,1.4-1.3,2.3c-0.3,0.8-0.5,1.7-0.5,2.5l13.8-2.3c-0.2-1.1-0.8-2.2-1.8-3.2
			C1073.1,365.3,1071.6,364.8,1069.6,364.8z"/>
		<path class="st2" d="M1119.6,365.6c-1.3,0-2.6,0.2-3.8,0.6c-1.2,0.4-2.3,1.1-3.1,1.9c-0.9,0.8-1.6,1.9-2.1,3.1
			c-0.5,1.2-0.8,2.7-0.8,4.4c0,3.3,1,5.8,2.9,7.5c1.9,1.7,4.2,2.5,7,2.5c1.6,0,3-0.2,4.2-0.6c1.2-0.4,2.2-0.8,3.1-1.2
			c1.1,0.8,1.9,1.6,2.4,2.5c0.5,0.9,0.8,2,0.8,3.2c0,2.2-1,3.9-3.2,5.1c-2.1,1.2-5,1.8-8.7,1.8c-3.4,0-6.5-0.5-9.2-1.5
			c-2.7-1-5.1-2.4-7.1-4.2c-2-1.8-3.5-4-4.6-6.5c-1.1-2.5-1.6-5.3-1.6-8.4c0-3.6,0.6-6.7,1.7-9.3c1.2-2.7,2.7-4.9,4.7-6.6
			c2-1.7,4.3-3,6.9-3.9c2.6-0.9,5.4-1.3,8.3-1.3c3.9,0,6.9,0.7,9,2.1c2.1,1.4,3.1,3.2,3.1,5.4c0,1-0.2,2-0.7,2.9
			c-0.5,0.9-1,1.7-1.7,2.3c-0.9-0.4-2-0.8-3.3-1.3C1122.5,365.8,1121.1,365.6,1119.6,365.6z"/>
		<path class="st2" d="M1177.8,395.1c-0.5,0.2-1.4,0.3-2.5,0.5c-1.2,0.2-2.4,0.2-3.6,0.2c-1.2,0-2.2-0.1-3.2-0.2
			c-0.9-0.2-1.7-0.5-2.4-1c-0.6-0.5-1.1-1.1-1.5-2c-0.3-0.8-0.5-1.9-0.5-3.3v-17.9c0-2.2-0.6-3.8-1.7-4.6c-1.1-0.9-2.5-1.3-4.1-1.3
			c-1.1,0-2.1,0.1-3.1,0.4c-1,0.3-1.8,0.6-2.3,1v28.3c-0.5,0.2-1.4,0.3-2.5,0.5c-1.2,0.2-2.4,0.2-3.6,0.2c-1.2,0-2.2-0.1-3.2-0.2
			c-0.9-0.2-1.7-0.5-2.4-1c-0.6-0.5-1.1-1.1-1.5-2c-0.4-0.8-0.5-1.9-0.5-3.3v-46.8c0.6-0.1,1.5-0.3,2.6-0.4c1.2-0.2,2.3-0.3,3.5-0.3
			c1.2,0,2.2,0.1,3.2,0.2c0.9,0.2,1.7,0.5,2.4,1c0.6,0.5,1.1,1.1,1.5,2c0.4,0.8,0.5,1.9,0.5,3.3v7.9c0.7-0.3,1.8-0.6,3.2-0.9
			c1.4-0.3,3-0.5,4.7-0.5c5.3,0,9.5,1.3,12.5,4c3,2.7,4.5,6.6,4.5,11.9V395.1z"/>
	</g>
</g>
</svg>
